<svg width="48" height="48" viewBox="0 0 48 48" fill="none" xmlns="http://www.w3.org/2000/svg">
<path d="M47.2766 29.8057C44.0712 42.663 31.0489 50.4877 18.1901 47.2815C5.33667 44.0761 -2.48802 31.053 0.718765 18.1967C3.92273 5.33806 16.9451 -2.48721 29.7999 0.718162C42.6577 3.92354 50.4819 16.9481 47.2762 29.8059L47.2764 29.8057H47.2766Z" fill="#F7931A"/>
<path fill-rule="evenodd" clip-rule="evenodd" d="M34.5801 20.5807C35.0578 17.3868 32.6262 15.67 29.3012 14.5247L30.3798 10.1983L27.7462 9.54205L26.6962 13.7545C26.0038 13.5818 25.2928 13.4191 24.5862 13.2578L25.6438 9.01756L23.0119 8.36133L21.9326 12.6863C21.3597 12.5559 20.7969 12.4269 20.251 12.2911L20.254 12.2775L16.6222 11.3706L15.9217 14.1834C15.9217 14.1834 17.8756 14.6313 17.8344 14.6589C18.9009 14.925 19.0937 15.631 19.0617 16.1906L17.833 21.1194C17.9064 21.138 18.0017 21.165 18.1068 21.2072L18.0302 21.1881L18.0302 21.1881C17.9652 21.1718 17.8977 21.155 17.8284 21.1384L16.1062 28.0429C15.9758 28.3669 15.645 28.8531 14.8994 28.6685C14.9258 28.7067 12.9853 28.1908 12.9853 28.1908L11.6777 31.2054L15.1049 32.0598C15.4802 32.1539 15.8511 32.2506 16.2182 32.3463L16.2182 32.3463C16.4748 32.4132 16.7295 32.4796 16.9826 32.5443L15.8928 36.9203L18.5233 37.5765L19.6026 33.247C20.3212 33.442 21.0186 33.622 21.7014 33.7916L20.6258 38.1008L23.2595 38.757L24.3492 34.3892C28.84 35.2391 32.2168 34.8965 33.6381 30.8345C34.7834 27.5641 33.5811 25.6778 31.2185 24.4477C32.9393 24.0508 34.2355 22.919 34.5811 20.581L34.5802 20.5804L34.5801 20.5807ZM28.563 29.0183C27.8162 32.0187 23.1197 30.7783 20.9709 30.2107C20.7776 30.1597 20.6049 30.1141 20.4576 30.0775L21.9037 24.28C22.0833 24.3249 22.3027 24.3741 22.5513 24.4299C24.774 24.9287 29.328 25.9507 28.5631 29.0183H28.563ZM22.9972 21.7392C24.7887 22.2173 28.6968 23.2603 29.3774 20.5333H29.3777C30.0727 17.7442 26.2746 16.9033 24.4197 16.4926C24.211 16.4464 24.0269 16.4057 23.8765 16.3682L22.5654 21.6261C22.6892 21.657 22.8344 21.6958 22.9972 21.7392Z" fill="white"/>
</svg>
